<svg width="27" height="27" viewBox="0 0 27 27" fill="none" xmlns="http://www.w3.org/2000/svg">
<path d="M2 4.07396C2 2.92812 2.92708 2 4.07396 2H22.8438C23.9885 2 24.9167 2.92708 24.9167 4.07396V22.8437C24.9167 23.9896 23.9896 24.9177 22.8427 24.9177H4.07292C3.80052 24.9177 3.5308 24.864 3.27917 24.7597C3.02753 24.6554 2.79892 24.5025 2.60641 24.3098C2.41389 24.1171 2.26125 23.8884 2.15719 23.6366C2.05314 23.3849 1.99973 23.1151 2 22.8427V4.07292V4.07396ZM18.1458 9.29167L19.7083 11.375H16.5833L18.1458 9.29167ZM18.1458 17.625L19.7083 15.5417H16.5833L18.1458 17.625ZM6.16667 14.5L7.7875 11.2583C8.04271 10.7479 8.7125 10.3333 9.29167 10.3333C9.86667 10.3333 10.5417 10.7479 10.7958 11.2583L12.4167 14.5H6.16667ZM7.72917 19.7083L9.03125 11.375H9.55208L10.8542 19.7083H7.72917ZM9.29167 8.25C9.56793 8.25 9.83289 8.14025 10.0282 7.9449C10.2236 7.74955 10.3333 7.4846 10.3333 7.20833C10.3333 6.93207 10.2236 6.66711 10.0282 6.47176C9.83289 6.27641 9.56793 6.16667 9.29167 6.16667C9.0154 6.16667 8.75045 6.27641 8.5551 6.47176C8.35975 6.66711 8.25 6.93207 8.25 7.20833C8.25 7.4846 8.35975 7.74955 8.5551 7.9449C8.75045 8.14025 9.0154 8.25 9.29167 8.25Z" stroke="#ABA7A7" stroke-width="2.45" stroke-linecap="round"/>
</svg>
