<svg width="17" height="9" viewBox="0 0 17 9" fill="none" xmlns="http://www.w3.org/2000/svg">
<path fill-rule="evenodd" clip-rule="evenodd" d="M0.783147 0.813176C1.07604 0.520283 1.55091 0.520283 1.84381 0.813176L6.58107 5.55044C6.98583 5.9552 7.25793 6.22647 7.48424 6.41859C7.70385 6.60503 7.83054 6.67249 7.92721 6.7039C8.17826 6.78547 8.44869 6.78547 8.69975 6.7039C8.79641 6.67249 8.9231 6.60503 9.14271 6.41859C9.36903 6.22647 9.64112 5.9552 10.0459 5.55043L14.7831 0.813176C15.076 0.520283 15.5509 0.520283 15.8438 0.813176C16.1367 1.10607 16.1367 1.58094 15.8438 1.87384L11.1065 6.61109L11.085 6.63263C10.7073 7.01033 10.3921 7.3256 10.1135 7.5621C9.82292 7.80878 9.52327 8.01352 9.16327 8.13048C8.61095 8.30994 8.016 8.30994 7.46368 8.13048C7.10369 8.01352 6.80404 7.80878 6.51347 7.5621C6.23488 7.32559 5.91962 7.01032 5.54192 6.63261L5.52041 6.6111L0.783147 1.87384C0.490253 1.58094 0.490253 1.10607 0.783147 0.813176Z" fill="#666666"/>
</svg>
