<svg width="1440" height="818" viewBox="0 0 1440 818" fill="none" xmlns="http://www.w3.org/2000/svg">
<ellipse cx="108.5" cy="785" rx="276.5" ry="268" fill="#FDF2E3"/>
<ellipse cx="1354.5" cy="150" rx="276.5" ry="268" fill="#FDF2E3"/>
<ellipse cx="1011.5" cy="665.5" rx="117.5" ry="119.5" fill="#FDF2E3"/>
<ellipse cx="292" cy="178" rx="33" ry="34" fill="#FDF2E3"/>
<ellipse cx="292" cy="271" rx="33" ry="34" fill="#FDF2E3"/>
<ellipse cx="292" cy="85" rx="33" ry="34" fill="#FDF2E3"/>
<ellipse cx="292" cy="85" rx="33" ry="34" fill="#FDF2E3"/>
<ellipse cx="292" cy="-8" rx="33" ry="34" fill="#FDF2E3"/>
<ellipse cx="562" cy="178" rx="33" ry="34" fill="#FDF2E3"/>
<ellipse cx="562" cy="271" rx="33" ry="34" fill="#FDF2E3"/>
<ellipse cx="562" cy="85" rx="33" ry="34" fill="#FDF2E3"/>
<ellipse cx="562" cy="85" rx="33" ry="34" fill="#FDF2E3"/>
<ellipse cx="562" cy="-8" rx="33" ry="34" fill="#FDF2E3"/>
<ellipse cx="472" cy="178" rx="33" ry="34" fill="#FDF2E3"/>
<ellipse cx="472" cy="271" rx="33" ry="34" fill="#FDF2E3"/>
<ellipse cx="472" cy="85" rx="33" ry="34" fill="#FDF2E3"/>
<ellipse cx="472" cy="85" rx="33" ry="34" fill="#FDF2E3"/>
<ellipse cx="472" cy="-8" rx="33" ry="34" fill="#FDF2E3"/>
<ellipse cx="382" cy="178" rx="33" ry="34" fill="#FDF2E3"/>
<ellipse cx="382" cy="271" rx="33" ry="34" fill="#FDF2E3"/>
<ellipse cx="382" cy="85" rx="33" ry="34" fill="#FDF2E3"/>
<ellipse cx="382" cy="85" rx="33" ry="34" fill="#FDF2E3"/>
<ellipse cx="382" cy="-8" rx="33" ry="34" fill="#FDF2E3"/>
</svg>
