<svg width="1280" height="727" viewBox="0 0 1280 727" fill="none" xmlns="http://www.w3.org/2000/svg">
<ellipse cx="108.5" cy="785" rx="276.5" ry="268" fill="#FDE3BE"/>
<ellipse cx="1332.32" cy="128.5" rx="254.318" ry="246.5" fill="#FDE3BE"/>
<ellipse cx="977.578" cy="631" rx="83.5775" ry="85" fill="#FDE3BE"/>
<ellipse cx="285.153" cy="125.353" rx="26.1528" ry="26.9453" fill="#FDE3BE"/>
<ellipse cx="285.153" cy="199.055" rx="26.1528" ry="26.9453" fill="#FDE3BE"/>
<ellipse cx="285.153" cy="51.649" rx="26.1528" ry="26.9453" fill="#FDE3BE"/>
<ellipse cx="285.153" cy="51.649" rx="26.1528" ry="26.9453" fill="#FDE3BE"/>
<ellipse cx="285.153" cy="-22.0547" rx="26.1528" ry="26.9453" fill="#FDE3BE"/>
<ellipse cx="499.131" cy="125.353" rx="26.1528" ry="26.9453" fill="#FDE3BE"/>
<ellipse cx="499.131" cy="199.055" rx="26.1528" ry="26.9453" fill="#FDE3BE"/>
<ellipse cx="499.131" cy="51.649" rx="26.1528" ry="26.9453" fill="#FDE3BE"/>
<ellipse cx="499.131" cy="51.649" rx="26.1528" ry="26.9453" fill="#FDE3BE"/>
<ellipse cx="499.131" cy="-22.0547" rx="26.1528" ry="26.9453" fill="#FDE3BE"/>
<ellipse cx="427.804" cy="125.353" rx="26.1528" ry="26.9453" fill="#FDE3BE"/>
<ellipse cx="427.804" cy="199.055" rx="26.1528" ry="26.9453" fill="#FDE3BE"/>
<ellipse cx="427.804" cy="51.649" rx="26.1528" ry="26.9453" fill="#FDE3BE"/>
<ellipse cx="427.804" cy="51.649" rx="26.1528" ry="26.9453" fill="#FDE3BE"/>
<ellipse cx="427.804" cy="-22.0547" rx="26.1528" ry="26.9453" fill="#FDE3BE"/>
<ellipse cx="356.478" cy="125.353" rx="26.1528" ry="26.9453" fill="#FDE3BE"/>
<ellipse cx="356.478" cy="199.055" rx="26.1528" ry="26.9453" fill="#FDE3BE"/>
<ellipse cx="356.478" cy="51.649" rx="26.1528" ry="26.9453" fill="#FDE3BE"/>
<ellipse cx="356.478" cy="51.649" rx="26.1528" ry="26.9453" fill="#FDE3BE"/>
<ellipse cx="356.478" cy="-22.0547" rx="26.1528" ry="26.9453" fill="#FDE3BE"/>
</svg>
