<svg width="50" height="47" viewBox="0 0 50 47" fill="none" xmlns="http://www.w3.org/2000/svg">
<path d="M1 0.546512V27.8721H7.52174V18.0349V17.7616H2.90217V17.2151L18.1196 1.91279L33.337 17.2151V17.7616H28.9891V24.8663V27.8721H35.5109V0.546512V0H1V0.546512Z" fill="#69D2E7"/>
<path d="M15.7129 32.2254V18.582H18.3987H21.0846V23.4825V28.383H19.174H17.2635V28.8703V29.3577L24.8918 37.0277L32.5201 44.6978L40.4115 37.042L48.3029 29.3863L48.3188 28.8846L48.3348 28.383H46.1452H43.9557V23.4825V18.582H46.9185H49.8812V32.2254V45.8688H32.797H15.7129V32.2254ZM20.5862 22.9535V22.3688H20.2816H19.977V22.9535V23.5382H20.2816H20.5862V22.9535Z" fill="#FFA321"/>
<path d="M30.1415 22.9535V22.3688H29.8369H29.5323V22.9535V23.5382H29.8369H30.1415V22.9535Z" fill="#FFA321"/>
</svg>
