<svg width="126" height="22" viewBox="0 0 126 22" fill="none" xmlns="http://www.w3.org/2000/svg">
<path d="M0.25 0.511673V13.3024H3.25V8.69772V8.56981H1.125V8.314L8.125 1.15121L15.125 8.314V8.56981H13.125V11.8954V13.3024H16.125V0.511673V0.255859H0.25V0.511673Z" fill="#69D2E7"/>
<path d="M7.01807 15.3399V8.95361H8.25355H9.48904V11.2475V13.5413H8.61019H7.73134V13.7694V13.9975L11.2404 17.5878L14.7494 21.178L18.3794 17.5945L22.0095 14.0109L22.0168 13.7761L22.0241 13.5413H21.017H20.0098V11.2475V8.95361H21.3726H22.7355V15.3399V21.7261H14.8768H7.01807V15.3399ZM9.25977 10.9998V10.7261H9.11967H8.97956V10.9998V11.2735H9.11967H9.25977V10.9998Z" fill="#F38630"/>
<path d="M13.6552 10.9998V10.7261H13.5151H13.375V10.9998V11.2735H13.5151H13.6552V10.9998Z" fill="#F38630"/>
<path d="M30.496 5.36V10.12H35.656V10.8H30.496V16H29.672V4.68H36.456V5.36H30.496ZM37.667 4.36V16H36.899V4.36H37.667ZM43.4542 12.152C42.6969 12.1787 42.0436 12.24 41.4942 12.336C40.9502 12.4267 40.4996 12.552 40.1422 12.712C39.7902 12.872 39.5289 13.064 39.3582 13.288C39.1876 13.5067 39.1022 13.7573 39.1022 14.04C39.1022 14.3067 39.1449 14.5387 39.2302 14.736C39.3209 14.928 39.4382 15.088 39.5822 15.216C39.7316 15.3387 39.9022 15.4293 40.0942 15.488C40.2862 15.5467 40.4862 15.576 40.6942 15.576C41.0036 15.576 41.2862 15.544 41.5422 15.48C41.8036 15.4107 42.0436 15.3173 42.2622 15.2C42.4862 15.0773 42.6942 14.9333 42.8863 14.768C43.0783 14.6027 43.2676 14.424 43.4542 14.232V12.152ZM38.7742 9.168C39.1902 8.752 39.6276 8.43733 40.0862 8.224C40.5449 8.01067 41.0649 7.904 41.6463 7.904C42.0729 7.904 42.4463 7.97333 42.7663 8.112C43.0863 8.24533 43.3503 8.44 43.5582 8.696C43.7716 8.94667 43.9316 9.25333 44.0382 9.616C44.1449 9.97333 44.1982 10.3733 44.1982 10.816V16H43.8942C43.7343 16 43.6356 15.9253 43.5982 15.776L43.4862 14.752C43.2676 14.9653 43.0489 15.1573 42.8302 15.328C42.6169 15.4987 42.3929 15.6427 42.1582 15.76C41.9236 15.8773 41.6703 15.968 41.3982 16.032C41.1262 16.096 40.8276 16.128 40.5022 16.128C40.2302 16.128 39.9662 16.088 39.7102 16.008C39.4542 15.928 39.2249 15.8053 39.0222 15.64C38.8249 15.4747 38.6649 15.264 38.5422 15.008C38.4249 14.7467 38.3662 14.4347 38.3662 14.072C38.3662 13.736 38.4622 13.424 38.6542 13.136C38.8462 12.848 39.1476 12.5973 39.5582 12.384C39.9689 12.1707 40.4942 12 41.1342 11.872C41.7796 11.744 42.5529 11.6693 43.4542 11.648V10.816C43.4542 10.08 43.2942 9.51467 42.9742 9.12C42.6596 8.72 42.1903 8.52 41.5662 8.52C41.1822 8.52 40.8542 8.57333 40.5822 8.68C40.3156 8.78667 40.0889 8.904 39.9022 9.032C39.7156 9.16 39.5636 9.27733 39.4462 9.384C39.3289 9.49067 39.2302 9.544 39.1502 9.544C39.0916 9.544 39.0436 9.53067 39.0062 9.504C38.9689 9.47733 38.9369 9.44267 38.9102 9.4L38.7742 9.168ZM47.4705 16.128C46.9318 16.128 46.5105 15.9787 46.2065 15.68C45.9078 15.3813 45.7585 14.92 45.7585 14.296V8.856H44.6145C44.5558 8.856 44.5078 8.84 44.4705 8.808C44.4332 8.776 44.4145 8.73067 44.4145 8.672V8.376L45.7745 8.28L45.9665 5.432C45.9772 5.384 45.9985 5.34133 46.0305 5.304C46.0625 5.26667 46.1078 5.248 46.1665 5.248H46.5265V8.288H49.0385V8.856H46.5265V14.256C46.5265 14.4747 46.5532 14.664 46.6065 14.824C46.6652 14.9787 46.7425 15.1067 46.8385 15.208C46.9398 15.3093 47.0572 15.384 47.1905 15.432C47.3238 15.48 47.4678 15.504 47.6225 15.504C47.8145 15.504 47.9798 15.4773 48.1185 15.424C48.2572 15.3653 48.3772 15.304 48.4785 15.24C48.5798 15.1707 48.6625 15.1093 48.7265 15.056C48.7905 14.9973 48.8412 14.968 48.8785 14.968C48.9212 14.968 48.9638 14.9947 49.0065 15.048L49.2145 15.384C49.0118 15.608 48.7532 15.7893 48.4385 15.928C48.1292 16.0613 47.8065 16.128 47.4705 16.128ZM53.8749 12.152C53.1175 12.1787 52.4642 12.24 51.9149 12.336C51.3709 12.4267 50.9202 12.552 50.5629 12.712C50.2109 12.872 49.9495 13.064 49.7789 13.288C49.6082 13.5067 49.5229 13.7573 49.5229 14.04C49.5229 14.3067 49.5655 14.5387 49.6509 14.736C49.7415 14.928 49.8589 15.088 50.0029 15.216C50.1522 15.3387 50.3229 15.4293 50.5149 15.488C50.7069 15.5467 50.9069 15.576 51.1149 15.576C51.4242 15.576 51.7069 15.544 51.9629 15.48C52.2242 15.4107 52.4642 15.3173 52.6829 15.2C52.9069 15.0773 53.1149 14.9333 53.3069 14.768C53.4989 14.6027 53.6882 14.424 53.8749 14.232V12.152ZM49.1949 9.168C49.6109 8.752 50.0482 8.43733 50.5069 8.224C50.9655 8.01067 51.4855 7.904 52.0669 7.904C52.4935 7.904 52.8669 7.97333 53.1869 8.112C53.5069 8.24533 53.7709 8.44 53.9789 8.696C54.1922 8.94667 54.3522 9.25333 54.4589 9.616C54.5655 9.97333 54.6189 10.3733 54.6189 10.816V16H54.3149C54.1549 16 54.0562 15.9253 54.0189 15.776L53.9069 14.752C53.6882 14.9653 53.4695 15.1573 53.2509 15.328C53.0375 15.4987 52.8135 15.6427 52.5789 15.76C52.3442 15.8773 52.0909 15.968 51.8189 16.032C51.5469 16.096 51.2482 16.128 50.9229 16.128C50.6509 16.128 50.3869 16.088 50.1309 16.008C49.8749 15.928 49.6455 15.8053 49.4429 15.64C49.2455 15.4747 49.0855 15.264 48.9629 15.008C48.8455 14.7467 48.7869 14.4347 48.7869 14.072C48.7869 13.736 48.8829 13.424 49.0749 13.136C49.2669 12.848 49.5682 12.5973 49.9789 12.384C50.3895 12.1707 50.9149 12 51.5549 11.872C52.2002 11.744 52.9735 11.6693 53.8749 11.648V10.816C53.8749 10.08 53.7149 9.51467 53.3949 9.12C53.0802 8.72 52.6109 8.52 51.9869 8.52C51.6029 8.52 51.2749 8.57333 51.0029 8.68C50.7362 8.78667 50.5095 8.904 50.3229 9.032C50.1362 9.16 49.9842 9.27733 49.8669 9.384C49.7495 9.49067 49.6509 9.544 49.5709 9.544C49.5122 9.544 49.4642 9.53067 49.4269 9.504C49.3895 9.47733 49.3575 9.44267 49.3309 9.4L49.1949 9.168ZM56.5369 9.432C56.9049 8.97333 57.3289 8.60533 57.8089 8.328C58.2942 8.05067 58.8329 7.912 59.4249 7.912C59.8622 7.912 60.2462 7.98133 60.5769 8.12C60.9129 8.25867 61.1902 8.45867 61.4089 8.72C61.6275 8.98133 61.7929 9.296 61.9049 9.664C62.0169 10.032 62.0729 10.448 62.0729 10.912V16H61.3049V10.912C61.3049 10.1653 61.1342 9.58133 60.7929 9.16C60.4515 8.73333 59.9315 8.52 59.2329 8.52C58.7155 8.52 58.2302 8.65333 57.7769 8.92C57.3289 9.18133 56.9289 9.54667 56.5769 10.016V16H55.8089V8.04H56.2329C56.3662 8.04 56.4435 8.10667 56.4649 8.24L56.5369 9.432ZM68.6778 9.752C68.3738 9.29333 68.0351 8.97067 67.6618 8.784C67.2938 8.59733 66.8724 8.504 66.3978 8.504C65.9284 8.504 65.5178 8.58933 65.1658 8.76C64.8138 8.93067 64.5178 9.17333 64.2778 9.488C64.0431 9.79733 63.8644 10.1707 63.7418 10.608C63.6244 11.04 63.5658 11.5173 63.5658 12.04C63.5658 13.224 63.7818 14.096 64.2138 14.656C64.6511 15.2107 65.2804 15.488 66.1018 15.488C66.6244 15.488 67.1018 15.352 67.5338 15.08C67.9658 14.808 68.3471 14.4267 68.6778 13.936V9.752ZM69.4378 4.36V16H69.0218C68.8831 16 68.8031 15.9307 68.7818 15.792L68.7018 14.536C68.3498 15.016 67.9391 15.3973 67.4698 15.68C67.0004 15.9627 66.4724 16.104 65.8858 16.104C64.9044 16.104 64.1418 15.7653 63.5978 15.088C63.0538 14.4107 62.7818 13.3947 62.7818 12.04C62.7818 11.4587 62.8564 10.9173 63.0058 10.416C63.1604 9.90933 63.3844 9.472 63.6778 9.104C63.9711 8.73067 64.3311 8.43733 64.7578 8.224C65.1898 8.01067 65.6858 7.904 66.2458 7.904C66.7844 7.904 67.2511 8.00267 67.6458 8.2C68.0404 8.39733 68.3844 8.69067 68.6778 9.08V4.36H69.4378ZM71.7572 5.36V10.12H76.9172V10.8H71.7572V16H70.9332V4.68H77.7172V5.36H71.7572ZM78.9282 4.36V16H78.1602V4.36H78.9282ZM84.7155 12.152C83.9582 12.1787 83.3048 12.24 82.7555 12.336C82.2115 12.4267 81.7608 12.552 81.4035 12.712C81.0515 12.872 80.7902 13.064 80.6195 13.288C80.4488 13.5067 80.3635 13.7573 80.3635 14.04C80.3635 14.3067 80.4062 14.5387 80.4915 14.736C80.5822 14.928 80.6995 15.088 80.8435 15.216C80.9928 15.3387 81.1635 15.4293 81.3555 15.488C81.5475 15.5467 81.7475 15.576 81.9555 15.576C82.2648 15.576 82.5475 15.544 82.8035 15.48C83.0648 15.4107 83.3048 15.3173 83.5235 15.2C83.7475 15.0773 83.9555 14.9333 84.1475 14.768C84.3395 14.6027 84.5288 14.424 84.7155 14.232V12.152ZM80.0355 9.168C80.4515 8.752 80.8888 8.43733 81.3475 8.224C81.8062 8.01067 82.3262 7.904 82.9075 7.904C83.3342 7.904 83.7075 7.97333 84.0275 8.112C84.3475 8.24533 84.6115 8.44 84.8195 8.696C85.0328 8.94667 85.1928 9.25333 85.2995 9.616C85.4062 9.97333 85.4595 10.3733 85.4595 10.816V16H85.1555C84.9955 16 84.8968 15.9253 84.8595 15.776L84.7475 14.752C84.5288 14.9653 84.3102 15.1573 84.0915 15.328C83.8782 15.4987 83.6542 15.6427 83.4195 15.76C83.1848 15.8773 82.9315 15.968 82.6595 16.032C82.3875 16.096 82.0888 16.128 81.7635 16.128C81.4915 16.128 81.2275 16.088 80.9715 16.008C80.7155 15.928 80.4862 15.8053 80.2835 15.64C80.0862 15.4747 79.9262 15.264 79.8035 15.008C79.6862 14.7467 79.6275 14.4347 79.6275 14.072C79.6275 13.736 79.7235 13.424 79.9155 13.136C80.1075 12.848 80.4088 12.5973 80.8195 12.384C81.2302 12.1707 81.7555 12 82.3955 11.872C83.0408 11.744 83.8142 11.6693 84.7155 11.648V10.816C84.7155 10.08 84.5555 9.51467 84.2355 9.12C83.9208 8.72 83.4515 8.52 82.8275 8.52C82.4435 8.52 82.1155 8.57333 81.8435 8.68C81.5768 8.78667 81.3502 8.904 81.1635 9.032C80.9768 9.16 80.8248 9.27733 80.7075 9.384C80.5902 9.49067 80.4915 9.544 80.4115 9.544C80.3528 9.544 80.3048 9.53067 80.2675 9.504C80.2302 9.47733 80.1982 9.44267 80.1715 9.4L80.0355 9.168ZM88.7318 16.128C88.1931 16.128 87.7718 15.9787 87.4678 15.68C87.1691 15.3813 87.0198 14.92 87.0198 14.296V8.856H85.8758C85.8171 8.856 85.7691 8.84 85.7318 8.808C85.6944 8.776 85.6758 8.73067 85.6758 8.672V8.376L87.0358 8.28L87.2278 5.432C87.2384 5.384 87.2598 5.34133 87.2918 5.304C87.3238 5.26667 87.3691 5.248 87.4278 5.248H87.7878V8.288H90.2998V8.856H87.7878V14.256C87.7878 14.4747 87.8144 14.664 87.8678 14.824C87.9264 14.9787 88.0038 15.1067 88.0998 15.208C88.2011 15.3093 88.3184 15.384 88.4518 15.432C88.5851 15.48 88.7291 15.504 88.8838 15.504C89.0758 15.504 89.2411 15.4773 89.3798 15.424C89.5184 15.3653 89.6384 15.304 89.7398 15.24C89.8411 15.1707 89.9238 15.1093 89.9878 15.056C90.0518 14.9973 90.1024 14.968 90.1398 14.968C90.1824 14.968 90.2251 14.9947 90.2678 15.048L90.4758 15.384C90.2731 15.608 90.0144 15.7893 89.6998 15.928C89.3904 16.0613 89.0678 16.128 88.7318 16.128ZM90.6801 16V8.04H91.1041C91.2375 8.04 91.3148 8.10667 91.3361 8.24L91.4081 9.392C91.7175 8.94933 92.0721 8.592 92.4721 8.32C92.8721 8.048 93.3228 7.912 93.8241 7.912C94.4055 7.912 94.8695 8.08 95.2161 8.416C95.5681 8.752 95.8055 9.21867 95.9281 9.816C96.0241 9.49067 96.1575 9.208 96.3281 8.968C96.5041 8.728 96.7041 8.53067 96.9281 8.376C97.1521 8.216 97.3948 8.09867 97.6561 8.024C97.9228 7.94933 98.1948 7.912 98.4721 7.912C98.8668 7.912 99.2215 7.97867 99.5361 8.112C99.8508 8.24 100.117 8.432 100.336 8.688C100.555 8.944 100.723 9.25867 100.84 9.632C100.957 10.0053 101.016 10.432 101.016 10.912V16H100.256V10.912C100.256 10.1333 100.088 9.54133 99.7521 9.136C99.4161 8.72533 98.9361 8.52 98.3121 8.52C98.0348 8.52 97.7681 8.57067 97.5121 8.672C97.2615 8.77333 97.0375 8.92533 96.8401 9.128C96.6481 9.32533 96.4935 9.57333 96.3761 9.872C96.2641 10.1707 96.2081 10.5173 96.2081 10.912V16H95.4401V10.912C95.4401 10.1387 95.2855 9.54667 94.9761 9.136C94.6721 8.72533 94.2241 8.52 93.6321 8.52C93.2001 8.52 92.8001 8.648 92.4321 8.904C92.0641 9.16 91.7361 9.51467 91.4481 9.968V16H90.6801ZM106.651 12.152C105.894 12.1787 105.24 12.24 104.691 12.336C104.147 12.4267 103.696 12.552 103.339 12.712C102.987 12.872 102.726 13.064 102.555 13.288C102.384 13.5067 102.299 13.7573 102.299 14.04C102.299 14.3067 102.342 14.5387 102.427 14.736C102.518 14.928 102.635 15.088 102.779 15.216C102.928 15.3387 103.099 15.4293 103.291 15.488C103.483 15.5467 103.683 15.576 103.891 15.576C104.2 15.576 104.483 15.544 104.739 15.48C105 15.4107 105.24 15.3173 105.459 15.2C105.683 15.0773 105.891 14.9333 106.083 14.768C106.275 14.6027 106.464 14.424 106.651 14.232V12.152ZM101.971 9.168C102.387 8.752 102.824 8.43733 103.283 8.224C103.742 8.01067 104.262 7.904 104.843 7.904C105.27 7.904 105.643 7.97333 105.963 8.112C106.283 8.24533 106.547 8.44 106.755 8.696C106.968 8.94667 107.128 9.25333 107.235 9.616C107.342 9.97333 107.395 10.3733 107.395 10.816V16H107.091C106.931 16 106.832 15.9253 106.795 15.776L106.683 14.752C106.464 14.9653 106.246 15.1573 106.027 15.328C105.814 15.4987 105.59 15.6427 105.355 15.76C105.12 15.8773 104.867 15.968 104.595 16.032C104.323 16.096 104.024 16.128 103.699 16.128C103.427 16.128 103.163 16.088 102.907 16.008C102.651 15.928 102.422 15.8053 102.219 15.64C102.022 15.4747 101.862 15.264 101.739 15.008C101.622 14.7467 101.563 14.4347 101.563 14.072C101.563 13.736 101.659 13.424 101.851 13.136C102.043 12.848 102.344 12.5973 102.755 12.384C103.166 12.1707 103.691 12 104.331 11.872C104.976 11.744 105.75 11.6693 106.651 11.648V10.816C106.651 10.08 106.491 9.51467 106.171 9.12C105.856 8.72 105.387 8.52 104.763 8.52C104.379 8.52 104.051 8.57333 103.779 8.68C103.512 8.78667 103.286 8.904 103.099 9.032C102.912 9.16 102.76 9.27733 102.643 9.384C102.526 9.49067 102.427 9.544 102.347 9.544C102.288 9.544 102.24 9.53067 102.203 9.504C102.166 9.47733 102.134 9.44267 102.107 9.4L101.971 9.168ZM110.667 16.128C110.129 16.128 109.707 15.9787 109.403 15.68C109.105 15.3813 108.955 14.92 108.955 14.296V8.856H107.811C107.753 8.856 107.705 8.84 107.667 8.808C107.63 8.776 107.611 8.73067 107.611 8.672V8.376L108.971 8.28L109.163 5.432C109.174 5.384 109.195 5.34133 109.227 5.304C109.259 5.26667 109.305 5.248 109.363 5.248H109.723V8.288H112.235V8.856H109.723V14.256C109.723 14.4747 109.75 14.664 109.803 14.824C109.862 14.9787 109.939 15.1067 110.035 15.208C110.137 15.3093 110.254 15.384 110.387 15.432C110.521 15.48 110.665 15.504 110.819 15.504C111.011 15.504 111.177 15.4773 111.315 15.424C111.454 15.3653 111.574 15.304 111.675 15.24C111.777 15.1707 111.859 15.1093 111.923 15.056C111.987 14.9973 112.038 14.968 112.075 14.968C112.118 14.968 112.161 14.9947 112.203 15.048L112.411 15.384C112.209 15.608 111.95 15.7893 111.635 15.928C111.326 16.0613 111.003 16.128 110.667 16.128ZM118.168 11.216C118.168 10.7893 118.107 10.408 117.984 10.072C117.867 9.73067 117.699 9.44267 117.48 9.208C117.262 8.97333 117 8.79467 116.696 8.672C116.398 8.544 116.067 8.48 115.704 8.48C115.294 8.48 114.926 8.544 114.6 8.672C114.275 8.8 113.992 8.984 113.752 9.224C113.518 9.464 113.328 9.752 113.184 10.088C113.04 10.424 112.944 10.8 112.896 11.216H118.168ZM112.856 11.704V11.856C112.856 12.4533 112.926 12.9787 113.064 13.432C113.203 13.8853 113.4 14.2667 113.656 14.576C113.912 14.88 114.222 15.1093 114.584 15.264C114.947 15.4187 115.352 15.496 115.8 15.496C116.2 15.496 116.547 15.4533 116.84 15.368C117.134 15.2773 117.379 15.1787 117.576 15.072C117.779 14.96 117.939 14.8613 118.056 14.776C118.174 14.6853 118.259 14.64 118.312 14.64C118.382 14.64 118.435 14.6667 118.472 14.72L118.68 14.976C118.552 15.136 118.382 15.2853 118.168 15.424C117.96 15.5627 117.726 15.6827 117.464 15.784C117.208 15.88 116.931 15.9573 116.632 16.016C116.339 16.0747 116.043 16.104 115.744 16.104C115.2 16.104 114.704 16.0107 114.256 15.824C113.808 15.632 113.424 15.3547 113.104 14.992C112.784 14.6293 112.536 14.1867 112.36 13.664C112.19 13.136 112.104 12.5333 112.104 11.856C112.104 11.2853 112.184 10.76 112.344 10.28C112.51 9.79467 112.744 9.37867 113.048 9.032C113.358 8.68 113.734 8.40533 114.176 8.208C114.624 8.01067 115.131 7.912 115.696 7.912C116.144 7.912 116.56 7.98933 116.944 8.144C117.328 8.29867 117.662 8.52533 117.944 8.824C118.227 9.11733 118.448 9.48 118.608 9.912C118.774 10.344 118.856 10.84 118.856 11.4C118.856 11.5173 118.84 11.5973 118.808 11.64C118.776 11.6827 118.723 11.704 118.648 11.704H112.856ZM123.944 9.024C123.902 9.09867 123.84 9.136 123.76 9.136C123.702 9.136 123.627 9.104 123.536 9.04C123.446 8.97067 123.323 8.896 123.168 8.816C123.019 8.73067 122.832 8.656 122.608 8.592C122.384 8.52267 122.112 8.488 121.792 8.488C121.504 8.488 121.24 8.53067 121 8.616C120.766 8.696 120.563 8.80533 120.392 8.944C120.227 9.08267 120.099 9.24533 120.008 9.432C119.918 9.61333 119.872 9.80533 119.872 10.008C119.872 10.2587 119.936 10.4667 120.064 10.632C120.192 10.7973 120.358 10.9387 120.56 11.056C120.768 11.1733 121.006 11.2747 121.272 11.36C121.539 11.4453 121.808 11.5307 122.08 11.616C122.358 11.7013 122.63 11.7973 122.896 11.904C123.163 12.0053 123.398 12.1333 123.6 12.288C123.808 12.4427 123.976 12.632 124.104 12.856C124.232 13.08 124.296 13.352 124.296 13.672C124.296 14.0187 124.235 14.3413 124.112 14.64C123.99 14.9387 123.808 15.1973 123.568 15.416C123.334 15.6347 123.043 15.808 122.696 15.936C122.35 16.064 121.952 16.128 121.504 16.128C120.944 16.128 120.462 16.04 120.056 15.864C119.651 15.6827 119.288 15.448 118.968 15.16L119.144 14.888C119.171 14.8453 119.2 14.8133 119.232 14.792C119.27 14.7707 119.318 14.76 119.376 14.76C119.446 14.76 119.528 14.8027 119.624 14.888C119.726 14.9733 119.859 15.0667 120.024 15.168C120.19 15.264 120.392 15.3547 120.632 15.44C120.878 15.5253 121.179 15.568 121.536 15.568C121.872 15.568 122.168 15.5227 122.424 15.432C122.68 15.336 122.894 15.208 123.064 15.048C123.235 14.888 123.363 14.7013 123.448 14.488C123.539 14.2693 123.584 14.04 123.584 13.8C123.584 13.5333 123.52 13.312 123.392 13.136C123.264 12.96 123.096 12.8107 122.888 12.688C122.68 12.5653 122.443 12.4613 122.176 12.376C121.915 12.2907 121.646 12.2053 121.368 12.12C121.091 12.0347 120.819 11.9413 120.552 11.84C120.291 11.7387 120.056 11.6107 119.848 11.456C119.64 11.3013 119.472 11.1147 119.344 10.896C119.216 10.672 119.152 10.3947 119.152 10.064C119.152 9.78133 119.214 9.50933 119.336 9.248C119.459 8.98667 119.632 8.75733 119.856 8.56C120.086 8.36267 120.363 8.20533 120.688 8.088C121.014 7.97067 121.379 7.912 121.784 7.912C122.27 7.912 122.699 7.98133 123.072 8.12C123.451 8.25867 123.795 8.472 124.104 8.76L123.944 9.024Z" fill="#37474F"/>
</svg>
